<mxfile host="app.diagrams.net" modified="2022-02-11T09:28:45.252Z" agent="5.0 (Windows NT 10.0; Win64; x64) AppleWebKit/537.36 (KHTML, like Gecko) Chrome/98.0.4758.82 Safari/537.36" etag="IrfY91dweEOZXwGl8blw" version="16.5.6" type="github">
  <diagram id="hJ7P2x1czzMFZnCrMSS7" name="Page-1">
    <mxGraphModel dx="1278" dy="547" grid="1" gridSize="10" guides="1" tooltips="1" connect="1" arrows="1" fold="1" page="1" pageScale="1" pageWidth="827" pageHeight="1169" math="0" shadow="0">
      <root>
        <mxCell id="0" />
        <mxCell id="1" parent="0" />
        <mxCell id="98W_iCq64UmuQusuCgXK-4" value="" style="edgeStyle=orthogonalEdgeStyle;rounded=0;orthogonalLoop=1;jettySize=auto;html=1;" edge="1" parent="1" source="98W_iCq64UmuQusuCgXK-2" target="98W_iCq64UmuQusuCgXK-3">
          <mxGeometry relative="1" as="geometry" />
        </mxCell>
        <mxCell id="98W_iCq64UmuQusuCgXK-2" value="开始" style="strokeWidth=2;html=1;shape=mxgraph.flowchart.start_1;whiteSpace=wrap;" vertex="1" parent="1">
          <mxGeometry x="350" y="180" width="100" height="40" as="geometry" />
        </mxCell>
        <mxCell id="98W_iCq64UmuQusuCgXK-16" value="" style="edgeStyle=orthogonalEdgeStyle;rounded=0;orthogonalLoop=1;jettySize=auto;html=1;" edge="1" parent="1" source="98W_iCq64UmuQusuCgXK-3" target="98W_iCq64UmuQusuCgXK-15">
          <mxGeometry relative="1" as="geometry" />
        </mxCell>
        <mxCell id="98W_iCq64UmuQusuCgXK-3" value="登录" style="whiteSpace=wrap;html=1;strokeWidth=2;" vertex="1" parent="1">
          <mxGeometry x="340" y="250" width="120" height="30" as="geometry" />
        </mxCell>
        <mxCell id="98W_iCq64UmuQusuCgXK-18" value="" style="edgeStyle=orthogonalEdgeStyle;rounded=0;orthogonalLoop=1;jettySize=auto;html=1;" edge="1" parent="1" source="98W_iCq64UmuQusuCgXK-15" target="98W_iCq64UmuQusuCgXK-17">
          <mxGeometry relative="1" as="geometry" />
        </mxCell>
        <mxCell id="98W_iCq64UmuQusuCgXK-15" value="点击私信&lt;br&gt;打开聊天界面" style="whiteSpace=wrap;html=1;strokeWidth=2;" vertex="1" parent="1">
          <mxGeometry x="340" y="330" width="120" height="60" as="geometry" />
        </mxCell>
        <mxCell id="98W_iCq64UmuQusuCgXK-20" value="" style="edgeStyle=orthogonalEdgeStyle;rounded=0;orthogonalLoop=1;jettySize=auto;html=1;" edge="1" parent="1" source="98W_iCq64UmuQusuCgXK-17" target="98W_iCq64UmuQusuCgXK-19">
          <mxGeometry relative="1" as="geometry" />
        </mxCell>
        <mxCell id="98W_iCq64UmuQusuCgXK-17" value="发送私信内容" style="whiteSpace=wrap;html=1;strokeWidth=2;" vertex="1" parent="1">
          <mxGeometry x="340" y="460" width="120" height="60" as="geometry" />
        </mxCell>
        <mxCell id="98W_iCq64UmuQusuCgXK-19" value="" style="whiteSpace=wrap;html=1;strokeWidth=2;" vertex="1" parent="1">
          <mxGeometry x="340" y="570" width="120" height="60" as="geometry" />
        </mxCell>
      </root>
    </mxGraphModel>
  </diagram>
</mxfile>
